<svg width="96" height="96" viewBox="0 0 96 96" fill="none" xmlns="http://www.w3.org/2000/svg">
  <rect width="96" height="96" rx="22" fill="#F6F4EF"/>
  <rect x="10" y="10" width="76" height="76" rx="18" fill="#FFFFFF"/>
  <path d="M25 68V28h9l28 30V28h10v40h-9L35 38v30H25Z" fill="#111827"/>
  <path d="M49 68V28h19c8 0 13 4 13 11 0 4-2 8-6 10 5 2 8 6 8 11 0 6-4 8-11 8H49Zm10-24h8c3 0 5-2 5-5s-2-5-5-5h-8v10Zm0 17h10c3 0 5-2 5-5s-2-5-6-5h-9v10Z" fill="#008F8C"/>
  <path d="M22 78H74" stroke="#B7791F" stroke-width="4" stroke-linecap="round"/>
</svg>
